<svg width="338.379" height="338.379" viewBox="0 0 89.53 89.53" xmlns:xlink="http://www.w3.org/1999/xlink" xmlns="http://www.w3.org/2000/svg"><defs><linearGradient id="prefix__a"><stop offset="0" stop-color="red"/><stop offset=".16" stop-color="#f60"/><stop offset=".33" stop-color="#ffde00"/><stop offset=".5" stop-color="#00ff3e"/><stop offset=".66" stop-color="#212888"/><stop offset=".85" stop-color="#681283"/><stop offset="1" stop-color="red"/></linearGradient><linearGradient xlink:href="#prefix__a" id="prefix__b" gradientUnits="userSpaceOnUse" gradientTransform="translate(-23.334 16.559)" x1="-75.461" y1="149.642" x2="13.813" y2="238.66"/></defs><g transform="translate(99.05 -165.945)"><rect style="mix-blend-mode:normal" width="89.53" height="89.53" x="-99.05" y="165.945" ry="9.976" fill="url(#prefix__b)" fill-rule="evenodd"/><ellipse cx="-53.317" cy="210.006" rx="38.753" ry="37.219" fill="#fff"/><path d="M-72.63 198.367l5.884-11.51s-7.163-.768 5.371-2.047c12.534-1.279 19.441 2.814 19.441 2.814l3.837 8.185 2.302 10.744-3.581 6.907-2.558 3.07-24.557-.768-6.65-7.93z" fill="#fd0"/><path d="M-54.404 251.862q-8.608 0-16.178-3.277-7.571-3.277-13.241-8.947-5.67-5.67-8.947-13.249-3.277-7.578-3.277-16.194 0-8.617 3.277-16.195 3.277-7.578 8.947-13.196 5.67-5.618 13.248-8.895 7.578-3.277 16.195-3.277 8.616 0 16.194 3.277 7.578 3.277 13.196 8.895 5.618 5.618 8.895 13.213 3.278 7.595 3.278 16.202 0 8.608-3.278 16.178-3.277 7.57-8.895 13.222-5.618 5.65-13.213 8.947-7.594 3.296-16.201 3.296zm.024-6.242q14.72 0 25.02-10.352 10.3-10.352 10.3-25.073t-10.28-25.021q-10.28-10.3-25.092-10.3-14.67 0-25.021 10.28-10.352 10.28-10.352 25.093 0 14.67 10.352 25.021 10.351 10.352 25.073 10.352zm-.052-35.373zm0 29.13q1.872 0 3.329-1.196 1.456-1.196 1.768-2.965H-59.53q.416 1.769 1.82 2.965 1.405 1.196 3.278 1.196zm-12.485-11.444h24.97v-4.161h-24.97zm.104-9.363h24.761q3.85-2.81 6.138-7.127 2.29-4.317 2.29-9.52 0-8.634-6.087-14.72-6.086-6.087-14.721-6.087-8.636 0-14.722 6.087-6.086 6.086-6.086 14.72 0 5.203 2.289 9.52 2.289 4.318 6.138 7.127zm1.457-4.162q-2.662-2.579-4.192-5.866-1.53-3.289-1.53-6.618 0-6.897 4.869-11.77 4.868-4.876 11.756-4.876 6.887 0 11.777 4.875 4.89 4.874 4.89 11.77 0 3.33-1.53 6.619-1.531 3.287-4.192 5.866z"/></g></svg>