<?xml version="1.0" standalone="no"?>
<!DOCTYPE svg PUBLIC "-//W3C//DTD SVG 20010904//EN"
 "http://www.w3.org/TR/2001/REC-SVG-20010904/DTD/svg10.dtd">
<svg version="1.0" xmlns="http://www.w3.org/2000/svg"
 width="700.000000pt" height="700.000000pt" viewBox="0 0 700.000000 700.000000"
 preserveAspectRatio="xMidYMid meet">
<metadata>
Created by potrace 1.14, written by Peter Selinger 2001-2017
</metadata>
<g transform="translate(0.000000,700.000000) scale(0.100000,-0.100000)"
fill="#000000" stroke="none">
<path d="M3335 6784 c-619 -37 -1144 -212 -1650 -549 -194 -129 -336 -245
-500 -410 -507 -507 -821 -1141 -922 -1865 -25 -178 -24 -663 1 -840 52 -371
142 -668 301 -995 361 -743 985 -1317 1770 -1628 530 -210 1126 -267 1720
-166 774 131 1521 585 2005 1217 311 406 523 869 620 1352 47 238 55 329 54
655 0 322 -12 444 -70 700 -94 423 -311 883 -589 1250 -529 699 -1339 1161
-2205 1259 -138 16 -428 26 -535 20z m508 -500 c617 -69 1156 -332 1607 -784
363 -363 603 -777 720 -1239 157 -623 100 -1328 -152 -1873 -143 -309 -317
-556 -573 -813 -444 -444 -940 -693 -1565 -785 -121 -18 -522 -24 -667 -11
-788 74 -1462 459 -1963 1123 -371 490 -546 1065 -527 1728 17 593 191 1104
527 1548 629 833 1547 1224 2593 1106z"/>
<path d="M3330 5803 c-263 -26 -520 -115 -722 -250 -369 -246 -619 -607 -709
-1021 -30 -140 -37 -436 -15 -590 57 -385 254 -734 557 -988 l77 -64 971 0
970 0 91 76 c267 224 461 555 532 907 19 95 23 144 23 317 0 232 -17 342 -78
525 -177 524 -656 951 -1187 1059 -154 31 -367 44 -510 29z m435 -338 c247
-55 437 -159 624 -339 194 -188 302 -371 366 -618 22 -83 28 -135 32 -263 6
-178 -7 -278 -52 -420 -59 -185 -204 -425 -338 -562 l-51 -53 -856 0 -856 0
-60 63 c-185 189 -319 445 -371 707 -11 55 -17 132 -17 220 2 349 125 648 368
895 207 210 434 331 716 381 99 17 398 11 495 -11z"/>
<path d="M2520 2315 l0 -155 970 0 970 0 0 155 0 155 -970 0 -970 0 0 -155z"/>
<path d="M3100 1568 c0 -31 63 -141 103 -182 128 -128 306 -158 467 -79 95 46
183 151 205 246 l7 27 -391 0 c-306 0 -391 -3 -391 -12z"/>
</g>
</svg>
