<svg height="208.117" width="213.45" viewBox="-136 -120.902 114.694 188.712" xmlns="http://www.w3.org/2000/svg"><path d="M-110.702 31.049c0 .78-.897 1.405-2.029 1.405-1.288.117-2.185-.508-2.185-1.405 0-.78.897-1.405 2.03-1.405 1.17-.117 2.184.507 2.184 1.405zm-12.135-1.756c-.274.78.507 1.678 1.677 1.912 1.015.39 2.186 0 2.42-.78.234-.781-.507-1.678-1.678-2.03-1.015-.273-2.146.117-2.42.898zm17.247-.664c-1.131.274-1.912 1.015-1.795 1.913.117.78 1.132 1.287 2.302 1.014 1.132-.273 1.913-1.014 1.795-1.795-.117-.741-1.17-1.249-2.302-1.132zm25.676-149.531c-54.123 0-95.525 41.09-95.525 95.213 0 43.275 27.237 80.307 66.142 93.34 4.995.898 6.75-2.185 6.75-4.721 0-2.42-.116-15.765-.116-23.96 0 0-27.315 5.854-33.052-11.628 0 0-4.448-11.356-10.848-14.282 0 0-8.936-6.127.625-6.01 0 0 9.716.78 15.062 10.068 8.546 15.062 22.867 10.731 28.447 8.156.897-6.244 3.434-10.575 6.243-13.15-21.813-2.42-43.821-5.58-43.821-43.12 0-10.73 2.966-16.116 9.21-22.984-1.015-2.536-4.332-12.994 1.014-26.495 8.155-2.537 26.925 10.535 26.925 10.535 7.804-2.185 16.194-3.316 24.505-3.316 8.312 0 16.702 1.131 24.506 3.316 0 0 18.77-13.11 26.925-10.535 5.346 13.54 2.03 23.959 1.015 26.495 6.243 6.907 10.067 12.292 10.067 22.984 0 37.656-22.984 40.66-44.797 43.12 3.59 3.082 6.634 8.935 6.634 18.105 0 13.15-.117 29.423-.117 32.623 0 2.536 1.795 5.619 6.75 4.721 39.022-12.955 65.48-49.987 65.48-93.262 0-54.123-43.9-95.213-98.024-95.213zM-137.51 13.684c-.507.39-.39 1.288.273 2.03.625.624 1.522.897 2.03.39.507-.39.39-1.288-.274-2.03-.624-.624-1.521-.897-2.029-.39zm-4.214-3.16c-.273.507.117 1.131.897 1.521.625.39 1.405.273 1.678-.273.274-.507-.117-1.132-.897-1.522-.78-.234-1.405-.117-1.678.273zm12.643 13.891c-.624.507-.39 1.678.507 2.42.898.897 2.03 1.014 2.537.39.507-.508.273-1.678-.508-2.42-.858-.897-2.029-1.014-2.536-.39zm-4.448-5.736c-.625.39-.625 1.405 0 2.302.624.898 1.677 1.288 2.185.898.624-.508.624-1.522 0-2.42-.547-.897-1.561-1.287-2.185-.78z"/></svg>