<svg width="636.257" height="572.357" viewBox="0 0 168.343 151.436" xml:space="preserve" xmlns="http://www.w3.org/2000/svg"><path style="fill:#000" d="M97.782 146.803c-.682-9.108-.482-8.423-2.728-9.348-1.973-.814-5.673-3.352-9.293-6.374-6.815-5.69-11.485-11.36-19.145-23.244-1.615-2.506-3.915-5.922-5.111-7.59-5.84-8.143-6.737-11.947-3.663-15.519 1.467-1.704 3.196-2.464 5.578-2.451 4.04.021 6.002 2.162 15.541 16.941 2.246 3.48 4.318 6.532 4.605 6.781.667.58 1.567.252 1.84-.67.123-.41-.944-15.966-2.733-39.872-2.169-28.985-2.873-39.471-2.703-40.244.126-.575.612-1.567 1.08-2.204 2.343-3.19 7.677-3.773 10.704-1.168 2.232 1.921 2.015.432 4.085 28.097 1.757 23.48 1.863 24.6 2.355 24.982.666.518 1.218.466 1.706-.161.343-.442.3-1.82-.352-11.449-.721-10.652-.728-10.977-.249-12.06 1.191-2.689 3.332-4.2 6.258-4.418 2.896-.216 5.192 1 6.685 3.543l.852 1.45.846 10.148c.546 6.56.952 10.259 1.146 10.46.382.396 1.36.332 1.744-.113.212-.246.158-2.136-.193-6.836-.544-7.263-.447-8.401.887-10.452 1.75-2.688 5.614-3.834 8.692-2.577 1.53.624 2.514 1.492 3.556 3.132.633.996.692 1.39 1.333 8.886.64 7.49.696 7.854 1.212 8.082.748.332 1.543-.048 1.781-.851.11-.37.064-2.482-.101-4.693-.284-3.797-.269-4.1.28-5.443 2.242-5.492 9.71-6.06 12.75-.968l.935 1.568 2.09 27.932 2.09 27.93-.87 2.116c-2.664 6.484-3.29 12.003-2.685 23.677l.38 7.334-25.288 1.892-25.288 1.893z" transform="translate(-2.832 -3.506)"/><path style="fill:#000;stroke-width:.552479" d="M142.754 47.333a4.905 4.905 0 0 1-1.146-.764c-.961-.921-.965-.94-1.063-5.437-.096-4.407-.158-4.802-.897-5.698-.918-1.114.91-1.018-20.867-1.1-18.39-.068-19.549-.088-20.1-.336-.735-.33-1.467-1.027-1.876-1.783-.305-.564-.318-.775-.364-5.993-.033-3.631.006-5.655.115-6.157.196-.892.928-1.817 1.812-2.29l.606-.324 19.587-.073 19.588-.073.514-.32c.727-.452 1.103-.89 1.484-1.728.311-.687.335-.971.409-4.895.087-4.616.093-4.65 1.096-5.53.922-.81 1.36-.97 2.65-.973 1.121-.002 1.222.025 1.973.534.435.296 6.018 4.703 12.406 9.794 12.983 10.348 12.491 9.889 12.491 11.649 0 1.217-.391 2.087-1.263 2.81-2.625 2.173-23.801 18.49-24.28 18.708-.815.37-2.031.36-2.875-.021zM31.252 46.98a4.905 4.905 0 0 0 1.146-.764c.961-.921.965-.94 1.063-5.437.096-4.407.158-4.802.897-5.699.918-1.113-.91-1.017 20.867-1.098 18.39-.07 19.549-.089 20.1-.337.735-.33 1.467-1.027 1.876-1.783.305-.564.318-.775.364-5.993.033-3.631-.006-5.655-.115-6.157-.196-.892-.928-1.817-1.812-2.29l-.606-.324-19.587-.073-19.588-.073-.514-.32c-.727-.452-1.103-.89-1.483-1.728-.312-.687-.336-.972-.41-4.895-.086-4.616-.093-4.65-1.096-5.53-.922-.81-1.36-.971-2.65-.973-1.12-.002-1.222.025-1.973.534-.435.295-6.018 4.703-12.406 9.794C2.342 24.182 2.834 23.723 2.834 25.483c0 1.217.391 2.087 1.263 2.809 2.625 2.174 23.801 18.49 24.28 18.709.815.37 2.031.36 2.875-.021z" transform="translate(-2.832 -3.506)"/></svg>