<svg width="594.804" height="363.836" viewBox="0 0 157.375 96.265" xmlns="http://www.w3.org/2000/svg"><path d="M22.363 8.752c-3.631-.033-5.655.006-6.157.115-.892.196-1.817.928-2.29 1.812l-.323.606-.028 7.385a11.608 11.608 0 017.803-3.037 11.608 11.608 0 019.04 4.33c-.044-5.855-.103-8.603-.269-8.97-.33-.736-1.027-1.468-1.783-1.877-.564-.305-.774-.318-5.993-.364zm8.126 25.626a11.608 11.608 0 01-9.12 4.47 11.608 11.608 0 01-7.868-3.1l-.055 14.712-.32.514c-.452.728-.89 1.104-1.728 1.484-.687.311-.972.335-4.895.409-4.616.087-4.65.094-5.53 1.096-.81.922-.97 1.36-.973 2.65-.002 1.121.025 1.221.534 1.972.296.436 4.703 6.019 9.794 12.407 10.348 12.983 9.89 12.491 11.649 12.491 1.217 0 2.087-.391 2.81-1.263 2.173-2.625 18.49-23.801 18.708-24.28.37-.815.36-2.031-.021-2.875a4.904 4.904 0 00-.764-1.145c-.921-.962-.94-.966-5.437-1.064-4.407-.096-4.802-.158-5.699-.897-1.039-.857-1.025-.085-1.085-17.581z"/><path d="M122.6 91.765c-7.62-5.037-6.955-4.775-9.062-3.566-1.85 1.062-6.123 2.434-10.73 3.447-8.67 1.905-16.013 2.127-30.099.91-2.97-.258-7.078-.53-9.13-.605-10.014-.367-13.571-1.986-14.514-6.603-.45-2.204.008-4.036 1.476-5.912 2.49-3.18 5.384-3.423 22.91-1.918 4.127.354 7.808.584 8.18.51.868-.173 1.16-1.085.598-1.866-.25-.348-13.203-9.027-33.202-22.246-24.248-16.028-32.97-21.89-33.478-22.498-.377-.451-.863-1.443-1.081-2.203-1.09-3.806 1.716-8.38 5.629-9.179 2.885-.589 1.575-1.33 24.718 13.969 19.642 12.983 20.592 13.586 21.196 13.43.817-.209 1.114-.678.917-1.447-.14-.542-1.255-1.352-9.269-6.73-8.864-5.95-9.125-6.144-9.688-7.185-1.398-2.588-1.283-5.206.336-7.653 1.603-2.423 3.97-3.493 6.894-3.118l1.668.214 8.543 5.543c5.521 3.584 8.695 5.527 8.974 5.497.546-.06 1.094-.872.977-1.448-.065-.319-1.592-1.433-5.524-4.032-6.076-4.017-6.917-4.79-7.722-7.1-1.054-3.029.405-6.786 3.284-8.45 1.43-.828 2.718-1.075 4.652-.895 1.176.11 1.524.304 7.843 4.385 6.315 4.078 6.636 4.258 7.133 3.99.72-.39.906-1.25.417-1.93-.225-.314-1.923-1.57-3.773-2.793-3.176-2.1-3.406-2.298-4.132-3.553C74.57 5.595 78.694-.658 84.58.056l1.813.22 23.366 15.445 23.366 15.445 1.14 1.983c3.496 6.076 7.477 9.95 17.078 16.617l6.032 4.19-13.983 21.154-13.984 21.155z"/></svg>