<svg width="603.712" height="636.419" viewBox="0 0 159.732 168.386" xmlns="http://www.w3.org/2000/svg"><path d="M124.957 148.744c-7.62-5.036-6.956-4.775-9.062-3.566-1.851 1.062-6.123 2.435-10.73 3.447-8.67 1.906-16.013 2.128-30.099.91-2.97-.257-7.079-.529-9.13-.604-10.014-.368-13.572-1.986-14.514-6.604-.45-2.203.008-4.035 1.476-5.911 2.49-3.18 5.384-3.423 22.91-1.918 4.127.354 7.808.583 8.18.51.867-.173 1.16-1.086.598-1.867-.25-.347-13.203-9.026-33.202-22.246-24.248-16.028-32.971-21.89-33.478-22.497-.377-.452-.864-1.443-1.081-2.204-1.09-3.805 1.716-8.38 5.628-9.178 2.886-.59 1.575-1.33 24.719 13.968 19.642 12.984 20.592 13.586 21.196 13.431.817-.21 1.114-.678.916-1.447-.139-.542-1.254-1.352-9.268-6.73-8.865-5.95-9.126-6.144-9.688-7.186-1.398-2.588-1.283-5.206.336-7.653 1.603-2.423 3.97-3.493 6.894-3.118l1.668.214 8.542 5.544c5.522 3.583 8.695 5.527 8.974 5.496.547-.06 1.095-.872.977-1.448-.065-.318-1.591-1.432-5.523-4.032-6.076-4.016-6.917-4.79-7.722-7.1-1.055-3.028.405-6.785 3.283-8.45 1.43-.827 2.719-1.075 4.653-.895 1.175.11 1.524.305 7.843 4.385 6.315 4.079 6.636 4.258 7.133 3.99.72-.389.906-1.25.417-1.93-.225-.313-1.923-1.57-3.773-2.793-3.176-2.099-3.407-2.297-4.132-3.552-2.97-5.135 1.152-11.388 7.039-10.674l1.812.22 23.367 15.445 23.366 15.445 1.14 1.982c3.496 6.077 7.477 9.95 17.078 16.618l6.032 4.189-13.984 21.155-13.983 21.154z"/><path d="M43.572 28.421a4.905 4.905 0 01-.765 1.145c-.92.961-.94.965-5.437 1.063-4.406.096-4.802.158-5.698.897-1.114.918-1.017-.91-1.099 20.868-.069 18.39-.088 19.548-.336 20.099-.331.735-1.027 1.468-1.784 1.876-.564.305-.774.318-5.993.365-3.631.032-5.654-.006-6.157-.116-.891-.196-1.817-.928-2.29-1.812l-.323-.606-.074-19.587-.073-19.588-.32-.514c-.452-.727-.89-1.103-1.728-1.483-.687-.312-.971-.336-4.895-.41-4.615-.086-4.65-.093-5.53-1.096-.81-.922-.97-1.36-.973-2.649-.002-1.122.025-1.222.535-1.973.295-.436 4.702-6.018 9.794-12.407C20.773-.49 20.314.003 22.074.003c1.217 0 2.088.39 2.81 1.262 2.174 2.625 18.49 23.801 18.708 24.28.37.815.36 2.031-.02 2.876zm-.098 111.544a4.905 4.905 0 00-.764-1.146c-.921-.961-.94-.965-5.437-1.063-4.407-.096-4.802-.158-5.698-.897-1.114-.918-1.018.91-1.1-20.867-.068-18.39-.088-19.549-.336-20.1-.33-.735-1.027-1.467-1.783-1.876-.564-.305-.775-.318-5.993-.364-3.631-.033-5.655.006-6.157.115-.892.196-1.817.928-2.29 1.812l-.324.606-.073 19.587-.073 19.588-.32.514c-.452.727-.89 1.104-1.728 1.484-.687.311-.972.335-4.895.409-4.616.087-4.65.094-5.53 1.096-.81.922-.971 1.36-.973 2.65-.002 1.121.025 1.222.534 1.973.295.435 4.703 6.018 9.794 12.406 10.348 12.983 9.889 12.491 11.649 12.491 1.217 0 2.087-.391 2.81-1.263 2.173-2.624 18.49-23.801 18.708-24.28.37-.815.36-2.031-.021-2.875z"/></svg>