<svg width="151.75" height="137.293" viewBox="0 0 40.15 36.325" xmlns="http://www.w3.org/2000/svg"><path d="M.815 36.278C.9 36.185 15.142 19.9 15.155 19.88c.007-.013-2.92-3.856-7.558-9.921C3.434 4.515.016.046.001.03-.024 0 .28 0 6.337 0l6.361.001 4.346 5.749c2.39 3.161 4.366 5.772 4.39 5.801l.043.053 5.073-5.801L31.623 0h3.079c2.972-.002 3.078 0 3.056.03-.013.017-3.038 3.477-6.724 7.69-3.685 4.212-6.699 7.664-6.697 7.671.002.007 3.56 4.716 7.909 10.464a7405.312 7405.312 0 017.904 10.46c0 .005-2.787.009-6.194.009h-6.194l-2.173-2.843c-5.79-7.574-7.485-9.79-7.513-9.819-.029-.03-.271.245-5.585 6.316l-5.555 6.346H.77zm32.05-3.662l-1.98-2.62-8.231-10.881-4.158-5.498a1698391.583 1698391.583 0 00-7.027-9.293l-.624-.826H9.013c-1.461-.001-1.829.003-1.818.02.007.012 3.598 4.709 7.98 10.437l10.753 14.06a5003.68 5003.68 0 013.16 4.132l.37.488 1.713.001c1.367.001 1.708-.003 1.694-.02z"/></svg>